<svg width="20" height="16" viewBox="0 0 20 16" fill="none" xmlns="http://www.w3.org/2000/svg">
<path fill-rule="evenodd" clip-rule="evenodd" d="M2.71313 0.510996C0.253977 1.72832 -0.688712 4.62858 0.532367 7.22152C1.42913 9.12589 4.91951 12.4911 8.88255 15.2723L9.91973 16L11.0903 15.1631C14.9957 12.3705 18.581 8.9071 19.387 7.14801C20.8739 3.90401 18.8923 0.33725 15.4657 0.0895465C13.7079 -0.037617 12.7972 0.321577 11.2538 1.75018L9.93408 2.97214L8.72669 1.83032C6.76184 -0.0281235 4.7111 -0.477833 2.71313 0.510996ZM8.32378 4.41068C7.43342 3.47196 6.3437 2.55312 5.90238 2.36856C5.46128 2.18421 4.97272 2.04689 4.81707 2.06345C2.64514 2.29416 1.54239 4.09564 2.32237 6.1382C2.91735 7.69574 8.86732 13.2927 9.92812 13.2927C10.3527 13.2927 14.0978 10.1818 15.815 8.4033C18.0867 6.0499 18.4496 4.39235 17.0084 2.95139C15.5257 1.4687 13.953 1.89015 11.562 4.41068L9.94291 6.11767L8.32378 4.41068Z" fill="#B5B5B5"/>
</svg>
