<svg width="20" height="16" viewBox="0 0 20 16" fill="none" xmlns="http://www.w3.org/2000/svg">
<path fill-rule="evenodd" clip-rule="evenodd" d="M5.17646 3.17212C5.92382 1.56133 7.24881 0.508853 9.11915 0.0409315C9.33447 -0.0129456 9.94382 -0.0137347 10.4733 0.0391556C15.2348 0.515563 17.02 6.60999 13.2558 9.5387C12.869 9.83966 12.7776 10.0027 12.9622 10.0633C13.1094 10.1116 13.7536 10.2979 14.3941 10.4775C16.1284 10.9638 17.802 11.8728 17.9333 12.4001C17.994 12.644 18.0177 13.5538 17.9858 14.4218L17.9277 16H10H2.07235L2.01421 14.4218C1.9823 13.5538 2.00599 12.644 2.06667 12.4001C2.19801 11.8728 3.87163 10.9638 5.60593 10.4775C6.2464 10.2979 6.8906 10.1116 7.0378 10.0633C7.22238 10.0027 7.13097 9.83966 6.74418 9.5387C4.83528 8.05342 4.16838 5.34516 5.17646 3.17212ZM11.9111 2.41369C14.9083 4.65206 13.2631 9.1061 9.57112 8.7485C6.19042 8.42089 5.41938 3.57511 8.52213 2.15615C9.37283 1.76717 11.235 1.90867 11.9111 2.41369ZM16.0681 13.6369C16.0681 13.046 15.5092 12.7198 13.5702 12.1781C11.0296 11.4682 8.75487 11.4879 6.18102 12.2424C4.43811 12.7532 3.93192 13.067 3.93192 13.6369V14.1252H10H16.0681V13.6369Z" fill="#B5B5B5"/>
</svg>
