<svg width="15" height="16" viewBox="0 0 15 16" fill="none" xmlns="http://www.w3.org/2000/svg">
<path d="M10.5663 10.6175L14.0038 14.055L12.5975 15.4806L9.00377 11.8675C8.12502 12.3556 7.10939 12.6294 6.05439 12.6294C2.71439 12.6294 -0.000610352 9.91438 -0.000610352 6.57438C-0.000610352 3.23438 2.71439 0.519379 6.05439 0.519379C9.39439 0.519379 12.1288 3.23438 12.1288 6.57438C12.1288 8.13688 11.5231 9.5625 10.5663 10.6175ZM2.01189 6.57438C2.01189 8.82063 3.80876 10.6175 6.05501 10.6175C8.30126 10.6175 10.0981 8.82063 10.0981 6.57438C10.0981 4.32813 8.30126 2.53125 6.05501 2.53125C3.80876 2.53125 2.01189 4.32813 2.01189 6.57438Z" fill="#B6B6B6"/>
</svg>
